# xmcd
#
# Track frame offsets:
#	150
#	16886
#	33415
#	47050
#	66683
#	82931
#	92599
#	111870
#	132285
#	154220
#	171034
#	189732
#	202555
#	217129
#
# Disc length: 3144 seconds
#
# Revision: 0
# Processed by: cddbd v1.5.2PL0 Copyright (c) Steve Scherf et al.
# Submitted via: EZCDAudioConverter 1.2.3.1
#
DISCID=bd0c460e
DTITLE=Super Zeros Get Awesome
DYEAR=2013
DGENRE=
TTITLE0=John Anserson - Colt Ford - Swingin'
TTITLE1=Montgomery Gentry - Charlie Daniels - Randy Owen - I like those people
TTITLE2=Rehab - Dumb Song
TTITLE3=Kottonmouth Kings - Still blowing smoke rings
TTITLE4=The Lacks - Get Down
TTITLE5=Bonecrusher - Super Dudes
TTITLE6=Blackberry Smoke - One Horse Town
TTITLE7=Bubba Sparxxx - I4NI - Already Known
TTITLE8=Anamul House - Nappy Roots - Party Calisthenics
TTITLE9=Space Capone - Cake
TTITLE10=Redneck Social Club - Strawberry Moonshine
TTITLE11=JJ Lawhorn - In it for the Honeys
TTITLE12=Matt Stillwell - Awesome
TTITLE13=Super Zeros Cast - SH#T
EXTD=
EXTT0=
EXTT1=
EXTT2=
EXTT3=
EXTT4=
EXTT5=
EXTT6=
EXTT7=
EXTT8=
EXTT9=
EXTT10=
EXTT11=
EXTT12=
EXTT13=
PLAYORDER=
